<?xml version="1.0" encoding="utf-8"?>
<!-- Generator: Adobe Illustrator 27.2.0, SVG Export Plug-In . SVG Version: 6.00 Build 0)  -->
<svg version="1.1" id="Layer_1" xmlns="http://www.w3.org/2000/svg" xmlns:xlink="http://www.w3.org/1999/xlink" x="0px" y="0px"
	 viewBox="0 0 512 512" style="enable-background:new 0 0 512 512;" xml:space="preserve">
<style type="text/css">
	.st0{fill:#212121;}
</style>
<g>
	<path class="st0" d="M85.33,395.13v-91.81l98.99,64.67c43.55,28.45,99.8,28.45,143.35,0l98.99-64.67v91.81
		c0,3.96-1.28,7.81-3.66,10.97l-0.03,0.03l-0.03,0.04l-0.08,0.1l-0.2,0.26l-0.3,0.37l-0.32,0.4l-2.09,2.48
		c-1.78,2.04-4.35,4.81-7.73,8.06c-6.77,6.49-16.83,14.95-30.46,23.33c-27.38,16.85-68.75,33.19-125.77,33.19
		c-57.02,0-98.4-16.34-125.77-33.19c-13.63-8.38-23.69-16.84-30.46-23.33c-3.39-3.25-5.95-6.02-7.74-8.06l-2.09-2.48l-0.62-0.78
		l-0.2-0.26l-0.07-0.1l-0.03-0.04C86.64,402.97,85.33,399.09,85.33,395.13z M503.71,209.3L307.67,337.38
		c-31.4,20.51-71.95,20.51-103.35,0L36.57,227.78v130.78c0,10.1-8.19,18.29-18.29,18.29C8.19,376.85,0,368.66,0,358.56V206.18
		l1.04-6.1L0,193.91c0.03-6.2,3.2-11.97,8.42-15.32l196.6-126.02c31.07-19.92,70.9-19.92,101.97,0l196.6,126.02
		c5.22,3.35,8.39,9.11,8.42,15.32c0.02,5.43-2.36,10.54-6.44,14.01L503.71,209.3z"/>
</g>
</svg>
