<svg xmlns="http://www.w3.org/2000/svg" version="1.1" xmlns:xlink="http://www.w3.org/1999/xlink" xmlns:svgjs="http://svgjs.dev/svgjs" width="2000" height="1247" viewBox="0 0 2000 1247"><g transform="matrix(1,0,0,1,-1.2121212121212466,0.504858299595071)"><svg viewBox="0 0 396 247" data-background-color="#dc0e0e" preserveAspectRatio="xMidYMid meet" height="1247" width="2000" xmlns="http://www.w3.org/2000/svg" xmlns:xlink="http://www.w3.org/1999/xlink"><g id="tight-bounds" transform="matrix(1,0,0,1,0.2400000000000091,-0.09999999999999432)"><svg viewBox="0 0 395.52 247.2" height="247.2" width="395.52"><g><svg></svg></g><g><svg viewBox="0 0 395.52 247.2" height="247.2" width="395.52"><g><path xmlns="http://www.w3.org/2000/svg" d="M55.039 247.2l84.467-146.302v100.57h116.508v-100.57l84.467 146.302zM197.76 0l26.403 45.732-52.806 0z" fill="#ea5853" fill-rule="nonzero" stroke="none" stroke-width="1" stroke-linecap="butt" stroke-linejoin="miter" stroke-miterlimit="10" stroke-dasharray="" stroke-dashoffset="0" font-family="none" font-weight="none" font-size="none" text-anchor="none" style="mix-blend-mode: normal" data-fill-palette-color="tertiary"></path></g><g transform="matrix(1,0,0,1,161.75436788250403,67.97999999999999)"><svg viewBox="0 0 72.01126423499193 111.24" height="111.24" width="72.01126423499193"><g><svg viewBox="0 0 244.59852904657123 377.84561429653445" height="111.24" width="72.01126423499193"><g transform="matrix(1,0,0,1,0,172.87280907653764)"><svg viewBox="0 0 244.59852904657123 204.97280521999681" height="204.97280521999681" width="244.59852904657123"><g id="textblocktransform"><svg viewBox="0 0 244.59852904657123 204.97280521999681" height="204.97280521999681" width="244.59852904657123" id="textblock"><g><svg viewBox="0 0 244.59852904657123 110.5525368" height="110.5525368" width="244.59852904657123"><g transform="matrix(1,0,0,1,0,0)"><svg width="244.59852904657123" viewBox="0.2199999988079071 -32.400001525878906 71.68000030517578 32.400001525878906" height="110.5525368" data-palette-color="#ea5853"><path d="M25.49 0L24.12-3.54 13.53-3.54 15.77-9.96 21.63-9.96 12.96-32.4 23.49-32.4 36.4 0 25.49 0ZM16.58-18.07L10.64 0 0.22 0 11.79-30.93 16.58-18.07ZM50.27 0L39.48 0 39.48-32.4 50.27-32.4 50.27 0ZM60.08-25.93L51.98-25.93 51.98-32.4 64.3-32.4 70.8-25.93 70.8-16.21 65.82-11.23 65.48-11.91 55.34-10.57 55.73-9.72 51.98-9.72 51.98-15.99 60.08-15.99 60.08-25.93ZM65.82-11.23L71.9 0 60.37 0 55.73-9.72 64.3-9.72 65.82-11.23Z" opacity="1" transform="matrix(1,0,0,1,0,0)" fill="#ea5853" class="wordmark-text-0" data-fill-palette-color="primary" id="text-0"></path></svg></g></svg></g><g transform="matrix(1,0,0,1,0,136.6513374775968)"><svg viewBox="0 0 244.59852904657123 68.3214677424" height="68.3214677424" width="244.59852904657123"><g transform="matrix(1,0,0,1,0,0)"><svg width="244.59852904657123" viewBox="1 -34.900001525878906 124.94999694824219 34.900001525878906" height="68.3214677424" data-palette-color="#f5abab"><path d="M33.25 0L25.35 0 22.85-8.3 11.2-8.3 8.7 0 1 0 12.5-34.9 21.9-34.9 33.25 0ZM21-14.75L17.1-28 16.85-28 13-14.75 21-14.75ZM105.95-12.8L105.95 0 98.35 0 98.35-34.9 114.9-34.9Q117.3-34.9 119.25-34.1 121.2-33.3 122.57-31.83 123.95-30.35 124.7-28.3 125.45-26.25 125.45-23.75L125.45-23.75Q125.45-20.2 123.87-17.55 122.3-14.9 119.1-13.7L119.1-13.7 125.95 0 117.5 0 111.4-12.8 105.95-12.8ZM105.95-19.2L113.95-19.2Q115.65-19.2 116.62-20.08 117.6-20.95 117.6-22.65L117.6-22.65 117.6-24.85Q117.6-26.55 116.62-27.43 115.65-28.3 113.95-28.3L113.95-28.3 105.95-28.3 105.95-19.2Z" opacity="1" transform="matrix(1,0,0,1,0,0)" fill="#f5abab" class="slogan-text-1" data-fill-palette-color="secondary" id="text-1"></path></svg></g></svg></g></svg></g></svg></g><g transform="matrix(1,0,0,1,61.961660662613596,0)"><svg viewBox="0 0 120.67520772134404 120.67520772134404" height="120.67520772134404" width="120.67520772134404"><g><svg></svg></g><g id="icon-0"><svg viewBox="0 0 120.67520772134404 120.67520772134404" height="120.67520772134404" width="120.67520772134404"><g><path d="M0 60.338c0-33.324 27.014-60.338 60.338-60.338 33.324 0 60.338 27.014 60.337 60.338 0 33.324-27.014 60.338-60.337 60.337-33.324 0-60.338-27.014-60.338-60.337zM60.338 110.705c27.817 0 50.368-22.55 50.367-50.367 0-27.817-22.55-50.368-50.367-50.368-27.817 0-50.368 22.55-50.368 50.368 0 27.817 22.55 50.368 50.368 50.367z" data-fill-palette-color="accent" fill="#dc4444" stroke="transparent"></path><ellipse rx="59.7342278220653" ry="59.7342278220653" cx="60.33760386067202" cy="60.33760386067202" fill="#dc4444" stroke="transparent" stroke-width="0" fill-opacity="1" data-fill-palette-color="accent"></ellipse></g><g transform="matrix(1,0,0,1,43.69448684867225,44.840516559523806)"><svg viewBox="0 0 33.28623402399954 30.99417460229643" height="30.99417460229643" width="33.28623402399954"><g><svg xmlns="http://www.w3.org/2000/svg" viewBox="4.006631374359131 6 57.993370056152344 54" x="0" y="0" height="30.99417460229643" width="33.28623402399954" class="icon-s-0" data-fill-palette-color="quaternary" id="s-0"><path d="M18.912 34a4 4 0 1 0-4-4A4 4 0 0 0 18.912 34Zm0-6a2 2 0 1 1-2 2A2 2 0 0 1 18.912 28Z" fill="#ffffff" data-fill-palette-color="quaternary"></path><path d="M37.087 23l0.45 4.958-11.2-0.934a8.027 8.027 0 0 0-2.42-3.259V23ZM18.912 24a6 6 0 1 1-6 6A6.006 6.006 0 0 1 18.912 24Zm-3-18h6V22.589a7.935 7.935 0 0 0-6 0V6Zm27.75 30h-5.75a1 1 0 0 0-1 1V49h-8a1 1 0 0 0-1 1V60h-18V50a1.009 1.009 0 0 0-0.062-0.348L8.336 45.566a85.652 85.652 0 0 1-4.11-16.031c-0.08-0.511-0.136-1.021-0.172-1.529-0.013-0.172-0.011-0.342-0.019-0.513-0.015-0.336-0.031-0.672-0.028-1.006 0-0.2 0.018-0.4 0.026-0.607 0.013-0.3 0.024-0.6 0.05-0.9 0.02-0.214 0.052-0.425 0.078-0.638 0.035-0.281 0.07-0.562 0.117-0.84 0.038-0.218 0.086-0.432 0.131-0.648 0.056-0.269 0.112-0.538 0.18-0.8 0.055-0.216 0.119-0.429 0.182-0.642 0.076-0.259 0.154-0.518 0.241-0.773 0.073-0.212 0.152-0.422 0.232-0.631 0.1-0.249 0.194-0.5 0.3-0.743 0.089-0.206 0.183-0.41 0.279-0.612 0.115-0.241 0.234-0.479 0.359-0.715 0.1-0.2 0.212-0.394 0.324-0.588 0.134-0.232 0.273-0.46 0.417-0.686 0.119-0.188 0.24-0.375 0.366-0.559 0.153-0.222 0.312-0.439 0.474-0.655 0.133-0.177 0.267-0.354 0.406-0.527 0.172-0.212 0.352-0.417 0.533-0.622 0.145-0.164 0.289-0.329 0.44-0.489 0.192-0.2 0.394-0.4 0.6-0.59 0.154-0.149 0.306-0.3 0.466-0.445 0.217-0.194 0.444-0.378 0.67-0.563 0.16-0.13 0.314-0.264 0.478-0.389 0.25-0.191 0.513-0.369 0.774-0.548 0.153-0.105 0.3-0.216 0.458-0.317 0.326-0.209 0.664-0.4 1.005-0.592 0.1-0.058 0.2-0.122 0.306-0.178l0.017-0.009V23.765a8 8 0 1 0 13 6.235 8.073 8.073 0 0 0-0.058-0.925l10.867 0.905L38 33.09A1 1 0 0 0 39 34h4.213ZM46 32H39.913L39.1 23H46ZM40.227 21H23.994L23.918 8.051A18.342 18.342 0 0 1 40.227 21Z" fill="#ffffff" data-fill-palette-color="quaternary"></path><path d="M48 30h7V28H48Z" fill="#ffffff" data-fill-palette-color="quaternary"></path><rect x="50" y="21" width="7" height="2" fill="#ffffff" data-fill-palette-color="quaternary"></rect><rect x="56" y="32" width="5" height="2" fill="#ffffff" data-fill-palette-color="quaternary"></rect><rect x="57" y="25" width="5" height="2" fill="#ffffff" data-fill-palette-color="quaternary"></rect><rect x="52" y="32" width="2" height="2" fill="#ffffff" data-fill-palette-color="quaternary"></rect><rect x="50" y="24" width="2" height="2" fill="#ffffff" data-fill-palette-color="quaternary"></rect></svg></g></svg></g></svg></g></svg></g><g></g></svg></g></svg></g></svg></g><defs></defs></svg><rect width="395.52" height="247.2" fill="none" stroke="none" visibility="hidden"></rect></g></svg></g></svg>