<svg width="512" height="512" viewBox="0 0 512 512" fill="none" xmlns="http://www.w3.org/2000/svg">
<path d="M229.294 66.9827L229.324 38.1933C229.324 38.1933 268.365 32.5382 286.873 82.4055C305.38 132.273 311.549 212.472 311.549 212.472C311.549 212.472 317.718 348.193 329.543 394.462C341.367 440.731 350.107 445.872 353.705 445.872C355.512 457.115 358.332 474.661 358.332 474.661C358.332 474.661 334.17 477.231 319.261 451.013C304.352 424.794 297.669 377.497 295.098 360.532C292.528 343.566 283.274 232.008 281.732 205.789C280.189 179.57 269.966 112.223 258.083 87.0324C246.201 61.8417 229.294 66.9827 229.294 66.9827Z" fill="url(#paint0_radial_2632_73)"/>
<path d="M229.294 66.9827L229.324 38.1933C229.324 38.1933 268.365 32.5382 286.873 82.4055C305.38 132.273 311.549 212.472 311.549 212.472C311.549 212.472 317.718 348.193 329.543 394.462C341.367 440.731 350.107 445.872 353.705 445.872C355.512 457.115 358.332 474.661 358.332 474.661C358.332 474.661 334.17 477.231 319.261 451.013C304.352 424.794 297.669 377.497 295.098 360.532C292.528 343.566 283.274 232.008 281.732 205.789C280.189 179.57 269.966 112.223 258.083 87.0324C246.201 61.8417 229.294 66.9827 229.294 66.9827Z" fill="url(#paint1_linear_2632_73)" fill-opacity="0.3"/>
<path d="M229.327 66.9827L229.324 38.1933C229.324 38.1933 199.329 38.1934 174.652 80.3492C149.975 122.505 137.637 196.535 126.327 243.832C115.017 291.129 110.39 331.742 108.334 370.814C106.277 409.885 113.989 439.188 124.27 451.527C134.552 463.865 141.75 471.062 161.799 472.091C169.765 472.499 187.409 466.148 196.758 451.527C210.941 429.345 217.322 395.49 217.322 395.49C217.322 395.49 237.372 295.756 246.111 266.966C254.851 238.177 267.703 214.528 267.703 214.528C267.703 214.528 285.183 178.028 303.176 178.542C321.169 179.056 336.592 214.528 336.592 214.528C336.592 214.528 359.212 260.283 367.438 299.868C375.663 339.454 375.664 372.87 375.664 372.87C375.664 372.87 375.664 412.97 368.466 428.392C361.269 443.815 356.642 445.872 353.557 445.872C355.364 457.115 358.184 474.661 358.184 474.661C358.184 474.661 383.889 470.548 395.199 440.731C406.51 410.913 405.481 366.701 402.911 336.883C400.34 307.066 383.375 252.057 383.375 252.057C383.375 252.057 361.783 187.795 336.078 163.633C310.373 139.47 282.098 151.294 264.104 169.288C246.111 187.281 227.604 229.951 218.35 257.712C209.096 285.474 195.216 361.046 195.216 361.046C195.216 361.046 189.903 390.349 179.279 422.223C168.654 454.097 150.879 446.9 142.778 426.336C134.677 405.772 137.637 354.363 142.778 314.263C147.919 274.164 178.251 133.301 195.73 100.399C213.209 67.4969 229.327 66.9827 229.327 66.9827Z" fill="url(#paint2_radial_2632_73)"/>
<path d="M229.327 66.9827L229.324 38.1933C229.324 38.1933 199.329 38.1934 174.652 80.3492C149.975 122.505 137.637 196.535 126.327 243.832C115.017 291.129 110.39 331.742 108.334 370.814C106.277 409.885 113.989 439.188 124.27 451.527C134.552 463.865 141.75 471.062 161.799 472.091C169.765 472.499 187.409 466.148 196.758 451.527C210.941 429.345 217.322 395.49 217.322 395.49C217.322 395.49 237.372 295.756 246.111 266.966C254.851 238.177 267.703 214.528 267.703 214.528C267.703 214.528 285.183 178.028 303.176 178.542C321.169 179.056 336.592 214.528 336.592 214.528C336.592 214.528 359.212 260.283 367.438 299.868C375.663 339.454 375.664 372.87 375.664 372.87C375.664 372.87 375.664 412.97 368.466 428.392C361.269 443.815 356.642 445.872 353.557 445.872C355.364 457.115 358.184 474.661 358.184 474.661C358.184 474.661 383.889 470.548 395.199 440.731C406.51 410.913 405.481 366.701 402.911 336.883C400.34 307.066 383.375 252.057 383.375 252.057C383.375 252.057 361.783 187.795 336.078 163.633C310.373 139.47 282.098 151.294 264.104 169.288C246.111 187.281 227.604 229.951 218.35 257.712C209.096 285.474 195.216 361.046 195.216 361.046C195.216 361.046 189.903 390.349 179.279 422.223C168.654 454.097 150.879 446.9 142.778 426.336C134.677 405.772 137.637 354.363 142.778 314.263C147.919 274.164 178.251 133.301 195.73 100.399C213.209 67.4969 229.327 66.9827 229.327 66.9827Z" fill="url(#paint3_radial_2632_73)"/>
<path d="M229.327 66.9827L229.324 38.1933C229.324 38.1933 199.329 38.1934 174.652 80.3492C149.975 122.505 137.637 196.535 126.327 243.832C115.017 291.129 110.39 331.742 108.334 370.814C106.277 409.885 113.989 439.188 124.27 451.527C134.552 463.865 141.75 471.062 161.799 472.091C169.765 472.499 187.409 466.148 196.758 451.527C210.941 429.345 217.322 395.49 217.322 395.49C217.322 395.49 237.372 295.756 246.111 266.966C254.851 238.177 267.703 214.528 267.703 214.528C267.703 214.528 285.183 178.028 303.176 178.542C321.169 179.056 336.592 214.528 336.592 214.528C336.592 214.528 359.212 260.283 367.438 299.868C375.663 339.454 375.664 372.87 375.664 372.87C375.664 372.87 375.664 412.97 368.466 428.392C361.269 443.815 356.642 445.872 353.557 445.872C355.364 457.115 358.184 474.661 358.184 474.661C358.184 474.661 383.889 470.548 395.199 440.731C406.51 410.913 405.481 366.701 402.911 336.883C400.34 307.066 383.375 252.057 383.375 252.057C383.375 252.057 361.783 187.795 336.078 163.633C310.373 139.47 282.098 151.294 264.104 169.288C246.111 187.281 227.604 229.951 218.35 257.712C209.096 285.474 195.216 361.046 195.216 361.046C195.216 361.046 189.903 390.349 179.279 422.223C168.654 454.097 150.879 446.9 142.778 426.336C134.677 405.772 137.637 354.363 142.778 314.263C147.919 274.164 178.251 133.301 195.73 100.399C213.209 67.4969 229.327 66.9827 229.327 66.9827Z" fill="url(#paint4_linear_2632_73)" fill-opacity="0.4"/>
<defs>
<radialGradient id="paint0_radial_2632_73" cx="0" cy="0" r="1" gradientUnits="userSpaceOnUse" gradientTransform="translate(254.589 180.084) rotate(177.56) scale(229.44 111.904)">
<stop stop-color="#414042" stop-opacity="0.8"/>
<stop offset="1" stop-color="#00AFE9"/>
</radialGradient>
<linearGradient id="paint1_linear_2632_73" x1="334.938" y1="442.787" x2="334.267" y2="176.478" gradientUnits="userSpaceOnUse">
<stop stop-color="#00F7E8"/>
<stop offset="1" stop-color="#00F7E8" stop-opacity="0"/>
</linearGradient>
<radialGradient id="paint2_radial_2632_73" cx="0" cy="0" r="1" gradientUnits="userSpaceOnUse" gradientTransform="translate(311.582 174.832) rotate(-163.414) scale(115.329 251.172)">
<stop stop-color="#00F7E8"/>
<stop offset="0.430087" stop-color="#00CCE9"/>
<stop offset="1" stop-color="#00AFE9"/>
</radialGradient>
<radialGradient id="paint3_radial_2632_73" cx="0" cy="0" r="1" gradientUnits="userSpaceOnUse" gradientTransform="translate(304.899 162.486) rotate(90.8268) scale(142.505 96.7755)">
<stop stop-color="#00F7E8"/>
<stop offset="1" stop-color="#00AFE9"/>
</radialGradient>
<linearGradient id="paint4_linear_2632_73" x1="296.159" y1="168.145" x2="107.836" y2="474.115" gradientUnits="userSpaceOnUse">
<stop stop-color="#00F7E8" stop-opacity="0"/>
<stop offset="1" stop-color="#00F7E8"/>
</linearGradient>
</defs>
</svg>
